REM DIRINDEX 1\2\3,1\2\4,1\2\5,1\2\6
REM DIRNAME cjc157,folder01,folder02,folder03,folder04,folder05
TITLE ""
FILE "014 014.mp3" MP3
  TRACK 01 AUDIO
    TITLE "0:"
    INDEX 01 00:00:00
  TRACK 02 AUDIO
    TITLE "3:cjc157_0483"
    INDEX 01 00:00:13
  TRACK 03 AUDIO
    TITLE "0:"
    INDEX 01 00:01:48
  TRACK 04 AUDIO
    TITLE "4:cjc157_0484"
    INDEX 01 00:02:18
  TRACK 05 AUDIO
    TITLE "0:"
    INDEX 01 00:05:20
  TRACK 06 AUDIO
    TITLE "5:cjc157_0485"
    INDEX 01 00:05:63
  TRACK 07 AUDIO
    TITLE "0:"
    INDEX 01 00:08:07
  TRACK 08 AUDIO
    TITLE "5:cjc157_0486"
    INDEX 01 00:08:50
  TRACK 09 AUDIO
    TITLE "0:"
    INDEX 01 00:11:29
  TRACK 10 AUDIO
    TITLE "3:cjc157_0487"
    INDEX 01 00:12:01
  TRACK 11 AUDIO
    TITLE "0:"
    INDEX 01 00:13:16
  TRACK 12 AUDIO
    TITLE "4:cjc157_0488"
    INDEX 01 00:13:63
  TRACK 13 AUDIO
    TITLE "0:"
    INDEX 01 00:15:05
  TRACK 14 AUDIO
    TITLE "5:cjc157_0489"
    INDEX 01 00:15:52
  TRACK 15 AUDIO
    TITLE "0:"
    INDEX 01 00:19:30
  TRACK 16 AUDIO
    TITLE "3:cjc157_0490"
    INDEX 01 00:19:71
  TRACK 17 AUDIO
    TITLE "0:"
    INDEX 01 00:21:19
  TRACK 18 AUDIO
    TITLE "4:cjc157_0491"
    INDEX 01 00:21:62
  TRACK 19 AUDIO
    TITLE "0:"
    INDEX 01 00:22:68
  TRACK 20 AUDIO
    TITLE "5:cjc157_0492"
    INDEX 01 00:23:38
  TRACK 21 AUDIO
    TITLE "0:"
    INDEX 01 00:26:20
  TRACK 22 AUDIO
    TITLE "3:cjc157_0493"
    INDEX 01 00:26:66
  TRACK 23 AUDIO
    TITLE "0:"
    INDEX 01 00:28:00
  TRACK 24 AUDIO
    TITLE "4:cjc157_0494"
    INDEX 01 00:28:47
  TRACK 25 AUDIO
    TITLE "0:"
    INDEX 01 00:29:58
  TRACK 26 AUDIO
    TITLE "5:cjc157_0495"
    INDEX 01 00:30:32
  TRACK 27 AUDIO
    TITLE "0:"
    INDEX 01 00:34:00
  TRACK 28 AUDIO
    TITLE "5:cjc157_0496"
    INDEX 01 00:34:47
  TRACK 29 AUDIO
    TITLE "0:"
    INDEX 01 00:36:21
  TRACK 30 AUDIO
    TITLE "3:cjc157_0497"
    INDEX 01 00:36:66
  TRACK 31 AUDIO
    TITLE "0:"
    INDEX 01 00:38:39
  TRACK 32 AUDIO
    TITLE "4:cjc157_0498"
    INDEX 01 00:39:07
  TRACK 33 AUDIO
    TITLE "0:"
    INDEX 01 00:40:24
  TRACK 34 AUDIO
    TITLE "5:cjc157_0499"
    INDEX 01 00:40:68
  TRACK 35 AUDIO
    TITLE "0:"
    INDEX 01 00:43:13
  TRACK 36 AUDIO
    TITLE "5:cjc157_0500"
    INDEX 01 00:43:58
  TRACK 37 AUDIO
    TITLE "0:"
    INDEX 01 00:45:55
  TRACK 38 AUDIO
    TITLE "3:cjc157_0501"
    INDEX 01 00:46:25
  TRACK 39 AUDIO
    TITLE "0:"
    INDEX 01 00:47:36
  TRACK 40 AUDIO
    TITLE "4:cjc157_0502"
    INDEX 01 00:48:08
  TRACK 41 AUDIO
    TITLE "0:"
    INDEX 01 00:49:14
  TRACK 42 AUDIO
    TITLE "5:cjc157_0503"
    INDEX 01 00:49:61
  TRACK 43 AUDIO
    TITLE "0:"
    INDEX 01 00:52:65
  TRACK 44 AUDIO
    TITLE "5:cjc157_0504"
    INDEX 01 00:53:37
  TRACK 45 AUDIO
    TITLE "0:"
    INDEX 01 00:56:12
  TRACK 46 AUDIO
    TITLE "3:cjc157_0505"
    INDEX 01 00:56:57
  TRACK 47 AUDIO
    TITLE "0:"
    INDEX 01 00:58:24
  TRACK 48 AUDIO
    TITLE "4:cjc157_0506"
    INDEX 01 00:58:69
  TRACK 49 AUDIO
    TITLE "0:"
    INDEX 01 00:59:63
  TRACK 50 AUDIO
    TITLE "5:cjc157_0507"
    INDEX 01 01:00:33
  TRACK 51 AUDIO
    TITLE "0:"
    INDEX 01 01:02:54
  TRACK 52 AUDIO
    TITLE "5:cjc157_0508"
    INDEX 01 01:03:24
  TRACK 53 AUDIO
    TITLE "0:"
    INDEX 01 01:06:73
  TRACK 54 AUDIO
    TITLE "3:cjc157_0509"
    INDEX 01 01:07:41
  TRACK 55 AUDIO
    TITLE "0:"
    INDEX 01 01:08:48
  TRACK 56 AUDIO
    TITLE "4:cjc157_0510"
    INDEX 01 01:09:20
  TRACK 57 AUDIO
    TITLE "0:"
    INDEX 01 01:10:35
  TRACK 58 AUDIO
    TITLE "5:cjc157_0511"
    INDEX 01 01:11:05
  TRACK 59 AUDIO
    TITLE "0:"
    INDEX 01 01:14:63
  TRACK 60 AUDIO
    TITLE "5:cjc157_0512"
    INDEX 01 01:15:33
  TRACK 61 AUDIO
    TITLE "0:"
    INDEX 01 01:17:69
  TRACK 62 AUDIO
    TITLE "3:cjc157_0513"
    INDEX 01 01:18:39
  TRACK 63 AUDIO
    TITLE "0:"
    INDEX 01 01:19:68
  TRACK 64 AUDIO
    TITLE "4:cjc157_0514"
    INDEX 01 01:20:40
  TRACK 65 AUDIO
    TITLE "0:"
    INDEX 01 01:21:59
  TRACK 66 AUDIO
    TITLE "5:cjc157_0515"
    INDEX 01 01:22:31
  TRACK 67 AUDIO
    TITLE "0:"
    INDEX 01 01:25:41
  TRACK 68 AUDIO
    TITLE "3:cjc157_0516"
    INDEX 01 01:26:11
  TRACK 69 AUDIO
    TITLE "0:"
    INDEX 01 01:27:44
  TRACK 70 AUDIO
    TITLE "4:cjc157_0517"
    INDEX 01 01:28:14
  TRACK 71 AUDIO
    TITLE "0:"
    INDEX 01 01:29:17
  TRACK 72 AUDIO
    TITLE "5:cjc157_0518"
    INDEX 01 01:29:62
  TRACK 73 AUDIO
    TITLE "0:"
    INDEX 01 01:32:33
  TRACK 74 AUDIO
    TITLE "5:cjc157_0519"
    INDEX 01 01:33:03
  TRACK 75 AUDIO
    TITLE "0:"
    INDEX 01 01:35:65
